# xmcd
#
# Track frame offsets:
#	150
#	17216
#	30865
#	47705
#	58121
#	74271
#	83481
#	96481
#	123048
#	136685
#	151259
#	163699
#	198746
#	215616
#	242605
#
# Disc length: 3963 seconds
#
# Revision: 0
# Processed by: cddbd v1.4PL0 Copyright (c) Steve Scherf et al.
# Submitted via: audiograbber 1.82.02
#
DISCID=c30f790f
DTITLE=Molten Mike - Chameleon
DYEAR=1900
DGENRE=
TTITLE0=Love Is Underrated
TTITLE1=Have You Heard The News
TTITLE2=Everything Changes
TTITLE3=Bourbon Street Crawl
TTITLE4=Back To My Life
TTITLE5=Down To Marty's Bar
TTITLE6=Tour De Lance
TTITLE7=Believe I'm Going Home
TTITLE8=Down By The Railroad Tracks
TTITLE9=Cyber Cafe
TTITLE10=Put The Top Down
TTITLE11=Girls Of South Beach
TTITLE12=Everything Changes - Japanese
TTITLE13=Girls Of South Beach - Japanese
TTITLE14=Data Track
EXTD=
EXTT0=
EXTT1=
EXTT2=
EXTT3=
EXTT4=
EXTT5=
EXTT6=
EXTT7=
EXTT8=
EXTT9=
EXTT10=
EXTT11=
EXTT12=
EXTT13=
EXTT14=
PLAYORDER=
